<svg width="30" height="40" viewBox="0 0 30 40" fill="none" xmlns="http://www.w3.org/2000/svg">
<path fill-rule="evenodd" clip-rule="evenodd" d="M15.2729 2.63846L17.394 1.55467C18.5606 0.958636 19.5299 0.484182 19.5478 0.500404C19.6477 0.590446 22.4731 7.82646 22.4731 7.99215C22.4731 8.26282 19.7689 9.60635 19.5973 9.42116C19.5218 9.33987 18.6623 8.00199 17.6869 6.44812C16.7115 4.89425 15.7693 3.40145 15.5933 3.13077L15.2729 2.63846ZM1.88191 15.4341C3.64318 12.4124 7.05601 9.97381 10.3762 9.36484C12.7987 8.92028 15.8656 9.56552 18.0992 10.9894C19.2044 11.6941 19.3413 11.734 20.6532 11.734C23.2724 11.734 25.1561 12.5052 27.1067 14.376C29.1277 16.3147 29.996 18.3713 30 21.2286C30.0077 26.8219 25.8518 32.9153 20.267 35.499C17.9174 36.5861 14.2739 37.2151 12.0132 36.9242L10.7856 36.7662L10.9071 37.9205C10.974 38.5553 11.0021 39.0766 10.9697 39.0786C10.9371 39.0808 9.90218 39.198 8.66974 39.3391C7.4373 39.4802 6.37373 39.54 6.3065 39.4718C6.2391 39.4038 6.12616 38.364 6.05571 37.161L5.92736 34.9737L5.08321 34.3357C3.10001 32.8373 1.19981 29.8152 0.513412 27.0684C-0.503193 22.9997 0.00878394 18.6476 1.88191 15.4341ZM12.7994 15.0094C13.1902 14.6948 13.5099 14.3624 13.5099 14.2705C13.5099 14.1786 12.9654 14.109 12.2998 14.1158C6.72257 14.1719 3.30921 20.2328 5.35873 26.4404C5.60988 27.2011 5.92772 27.9867 6.06503 28.1861C6.30023 28.5273 6.32156 28.5074 6.43288 27.8421C6.89915 25.0579 8.007 21.8142 9.28623 19.4884C10.1017 18.0056 11.8558 15.7695 12.7994 15.0094ZM24.7099 19.0486C24.1488 18.0018 23.4794 17.3826 22.4243 16.9344C21.585 16.5779 19.749 16.5896 18.7128 16.9583C14.8974 18.3157 11.927 23.1382 11.0665 29.3721C10.8973 30.5972 10.81 31.6514 10.8725 31.7149C10.9349 31.7783 11.332 31.8982 11.7549 31.9813C16.0662 32.8291 21.2768 30.2771 23.6492 26.1561C25.3201 23.254 25.6781 20.8547 24.7099 19.0486Z" fill="white"/>
</svg>
